<svg width="221" height="26" viewBox="0 0 221 26" fill="none" xmlns="http://www.w3.org/2000/svg">
<path d="M31.7806 2.76436C31.7806 1.33061 30.6195 0.168335 29.1872 0.168335C27.7549 0.168335 26.5938 1.33061 26.5938 2.76436V22.4237C26.5938 23.8574 27.7549 25.0197 29.1872 25.0197C30.6195 25.0197 31.7806 23.8574 31.7806 22.4237V2.76436Z" fill="#231F20"/>
<path d="M57.2013 2.10113V2.2514C57.2013 3.40692 56.2635 4.33962 55.1131 4.33962H49.434V22.5118C49.434 23.8953 48.3148 25.0197 46.9313 25.0197H46.7499C45.3664 25.0197 44.242 23.9005 44.242 22.5118V4.33962H38.5628C37.4073 4.33962 36.4746 3.40173 36.4746 2.2514V2.10113C36.4746 0.945611 37.4125 0.0129089 38.5628 0.0129089H55.1131C56.2686 0.0129089 57.2013 0.950793 57.2013 2.10113Z" fill="#231F20"/>
<path d="M97.8416 2.61919V22.4081C97.8416 23.8486 96.6705 25.0196 95.23 25.0196C93.7895 25.0196 92.6184 23.8486 92.6184 22.4081V14.7495H81.5659V22.4081C81.5659 23.8486 80.3948 25.0196 78.9543 25.0196C77.5138 25.0196 76.3428 23.8486 76.3428 22.4081V2.61919C76.3428 1.17869 77.5138 0.00762815 78.9543 0.00762815C79.6746 0.00762815 80.3275 0.302985 80.799 0.769336C81.2706 1.24087 81.5607 1.89376 81.5607 2.61401V10.2725H92.6133V2.61401C92.6133 1.17351 93.7843 0.00244141 95.2248 0.00244141C95.9503 0.00244141 96.598 0.297798 97.0747 0.76415C97.5462 1.23568 97.8364 1.88857 97.8364 2.60883L97.8416 2.61919Z" fill="#231F20"/>
<path d="M121.392 22.8019C121.392 23.4133 121.138 23.9626 120.739 24.3615C120.335 24.7657 119.781 25.0144 119.159 25.0144H105.464C104.427 25.0144 103.588 24.175 103.588 23.1387V1.87822C103.588 0.84188 104.427 0.00244141 105.464 0.00244141H119.071C120.257 0.00244141 121.299 0.893691 121.382 2.07511C121.428 2.75392 121.175 3.37572 120.734 3.81616C120.33 4.22033 119.775 4.46906 119.154 4.46906H108.811V10.2674H117.304C118.49 10.2674 119.532 11.1586 119.615 12.34C119.661 13.0188 119.408 13.6406 118.967 14.0811C118.563 14.4853 118.003 14.734 117.387 14.734H108.806V20.5323H119.071C120.309 20.5323 121.397 21.5479 121.387 22.7863L121.392 22.8019Z" fill="#231F20"/>
<path d="M65.6526 1.01299L58.8387 11.0447C58.3309 11.7909 58.3102 12.765 58.7817 13.5371L65.1655 23.9264C65.5853 24.6052 66.3211 25.0197 67.119 25.0197H67.5491C69.3627 25.0197 70.4612 23.0144 69.4819 21.491L64.3209 13.4231C63.9686 12.8739 63.9686 12.164 64.3209 11.6147L69.4819 3.54683C70.4612 2.01823 69.3627 0.0180969 67.5491 0.0180969C66.7874 0.0180969 66.0775 0.396361 65.6526 1.02334V1.01299Z" fill="#231F20"/>
<path d="M174.297 20.211L167.97 4.58306C167.675 3.80062 167.426 3.17882 167.234 2.70728C167.043 2.24093 166.804 1.80049 166.525 1.39632C166.245 0.986964 165.877 0.65534 165.416 0.396256C164.96 0.137171 164.39 0.00762939 163.706 0.00762939C163.022 0.00762939 162.467 0.137171 162.011 0.396256C161.555 0.65534 161.187 0.992145 160.902 1.41186C160.623 1.83158 160.358 2.35493 160.11 2.9871C159.861 3.61926 159.648 4.16334 159.472 4.61415L153.28 20.3405C153.026 20.9675 152.845 21.4598 152.736 21.8121C152.627 22.1645 152.57 22.5065 152.57 22.8381C152.57 23.4133 152.809 23.9211 153.28 24.3719C153.752 24.8227 154.301 25.0507 154.918 25.0507C155.643 25.0507 156.166 24.8383 156.488 24.4134C156.809 23.9885 157.192 23.1698 157.643 21.9624L158.799 18.8586L160.089 15.1744L163.343 6.10129C163.457 5.79039 163.897 5.79039 164.011 6.10129L167.328 15.1744L168.649 18.8586L169.805 21.9002C169.96 22.2733 170.141 22.7086 170.359 23.1957C170.571 23.6879 170.774 24.0506 170.96 24.2838C171.147 24.5222 171.38 24.7087 171.654 24.8434C171.929 24.9833 172.261 25.0507 172.644 25.0507C173.281 25.0507 173.903 24.7916 174.349 24.3356C174.795 23.8796 175.038 23.3615 175.038 22.8018C175.038 22.2422 174.789 21.3976 174.297 20.2058V20.211Z" fill="#F81848"/>
<path d="M220.259 20.211L213.932 4.58306C213.637 3.80062 213.388 3.17882 213.196 2.70728C213.005 2.24093 212.766 1.80049 212.486 1.39632C212.207 0.986964 211.839 0.65534 211.378 0.396256C210.922 0.137171 210.352 0.00762939 209.668 0.00762939C208.984 0.00762939 208.429 0.137171 207.973 0.396256C207.517 0.65534 207.149 0.992145 206.864 1.41186C206.585 1.83158 206.32 2.35493 206.072 2.9871C205.823 3.61926 205.61 4.16334 205.434 4.61415L199.242 20.3405C198.988 20.9675 198.807 21.4598 198.698 21.8121C198.589 22.1645 198.532 22.5065 198.532 22.8381C198.532 23.4133 198.771 23.9211 199.242 24.3719C199.714 24.8227 200.263 25.0507 200.88 25.0507C201.605 25.0507 202.128 24.8383 202.45 24.4134C202.771 23.9885 203.154 23.1698 203.605 21.9624L204.761 18.8586L206.051 15.1744L209.305 6.10129C209.419 5.79039 209.859 5.79039 209.973 6.10129L213.29 15.1744L214.611 18.8586L215.766 21.9002C215.922 22.2733 216.103 22.7086 216.321 23.1957C216.533 23.6879 216.735 24.0506 216.922 24.2838C217.109 24.5222 217.342 24.7087 217.616 24.8434C217.891 24.9833 218.223 25.0507 218.606 25.0507C219.243 25.0507 219.865 24.7916 220.311 24.3356C220.772 23.8693 221 23.3615 221 22.8018C221 22.2422 220.751 21.3976 220.259 20.2058V20.211Z" fill="#F81848"/>
<path d="M192.848 21.3303C192.495 20.496 192.003 19.5633 191.371 18.527C190.739 17.4906 190.019 16.5165 189.21 15.5941C188.402 14.677 187.557 13.9826 186.676 13.5111C188.78 13.0499 190.35 12.2727 191.387 11.1742C192.423 10.0756 192.941 8.60922 192.941 6.77491C192.941 5.87847 192.786 5.02868 192.48 4.2307C192.174 3.43272 191.723 2.72801 191.127 2.12176C190.532 1.5155 189.853 1.05433 189.081 0.727882C188.443 0.437708 187.723 0.24598 186.93 0.147528C186.138 0.0542576 185.179 0.00244141 184.06 0.00244141H179.624C178.66 0.00244141 177.878 0.784881 177.878 1.74867V2.00257C177.878 2.96636 178.66 3.7488 179.624 3.7488H182.479C184.194 3.7488 185.34 3.87316 185.92 4.1167C186.537 4.37578 187.018 4.76441 187.366 5.28258C187.713 5.80075 187.889 6.40701 187.889 7.08581C187.889 7.96151 187.671 8.6455 187.241 9.14294C186.811 9.64038 186.184 9.99272 185.371 10.2C184.552 10.4073 183.547 10.5109 182.35 10.5109H179.629C178.666 10.5109 177.883 11.2933 177.883 12.2571V12.34C177.883 13.3038 178.666 14.0863 179.629 14.0863C180.515 14.0863 181.246 14.2054 181.832 14.4386C182.412 14.6718 182.987 15.1122 183.552 15.7496C184.117 16.3869 184.759 17.3196 185.474 18.5373L187.474 21.864C187.946 22.6464 188.319 23.2423 188.594 23.6465C188.868 24.0506 189.195 24.3823 189.578 24.6465C189.956 24.9108 190.428 25.0403 190.988 25.0403C191.459 25.0403 191.874 24.9471 192.231 24.7657C192.589 24.5792 192.874 24.3305 193.081 24.0092C193.288 23.6879 193.392 23.3667 193.392 23.0454C193.392 22.7241 193.216 22.1593 192.863 21.3251L192.848 21.3303Z" fill="#F81848"/>
<path d="M145.866 25.0196C144.938 25.0196 144.083 24.5895 143.596 23.8745L132.388 7.47444V22.6153C132.388 23.9418 131.315 25.0196 129.989 25.0196H129.554C128.227 25.0196 127.149 23.9418 127.149 22.6153V4.10634C127.149 1.84195 128.989 0.00762939 131.248 0.00762939C131.637 0.00762939 132.02 0.0646238 132.388 0.173439C133.466 0.45325 134.404 1.08542 135.005 1.97148L148.14 21.3613C149.223 22.9625 147.949 25.0196 145.871 25.0196H145.866Z" fill="#231F20"/>
<path d="M166.39 17.1591V16.9414C166.39 15.5165 165.235 14.3609 163.81 14.3609C162.385 14.3609 161.229 15.5165 161.229 16.9414V17.1591C161.229 18.584 162.385 19.7395 163.81 19.7395C165.235 19.7395 166.39 18.584 166.39 17.1591Z" fill="#F81848"/>
<path d="M212.351 17.1591V16.9414C212.351 15.5165 211.196 14.3609 209.771 14.3609C208.346 14.3609 207.19 15.5165 207.19 16.9414V17.1591C207.19 18.584 208.346 19.7395 209.771 19.7395C211.196 19.7395 212.351 18.584 212.351 17.1591Z" fill="#F81848"/>
<path d="M148.534 2.80574V2.58811C148.534 1.16314 147.378 0.00762939 145.954 0.00762939C144.529 0.00762939 143.373 1.16314 143.373 2.58811V2.80574C143.373 4.2307 144.529 5.38622 145.954 5.38622C147.378 5.38622 148.534 4.2307 148.534 2.80574Z" fill="#F81848"/>
<path d="M5.16193 2.80586V2.58823C5.16193 1.16326 4.00642 0.00775146 2.58145 0.00775146C1.15649 0.00775146 0.000976562 1.16326 0.000976562 2.58823V2.80586C0.000976562 4.23082 1.15649 5.38634 2.58145 5.38634C4.00642 5.38634 5.16193 4.23082 5.16193 2.80586Z" fill="#F81848"/>
<path d="M18.3702 24.9885C17.6189 25.0144 16.909 24.6517 16.4893 24.0299L11.1729 16.1382L10.6703 15.3869L10.5563 15.5423L10.3801 15.7807L10.2661 15.9361L4.1828 24.0714C3.70608 24.7139 2.92883 25.0611 2.12567 24.9937C0.301716 24.8383 -0.630987 22.7293 0.477893 21.2733L7.97579 11.454L10.0018 8.79575L10.9293 7.57805L16.054 0.862596C16.51 0.266703 17.2355 -0.0545587 17.9764 0.00762154C19.6864 0.15789 20.5673 2.12175 19.5413 3.49489L13.6186 11.4436L13.4632 11.6509L13.3544 11.8011L20.0802 21.5841C21.0492 22.9987 20.0802 24.9263 18.3651 24.9833L18.3702 24.9885Z" fill="#231F20"/>
</svg>
